<svg width="500" height="500" viewBox="0 0 500 500" fill="none" xmlns="http://www.w3.org/2000/svg">
<circle cx="250" cy="250" r="25.5102" fill="#F4364C"/>
<path fill-rule="evenodd" clip-rule="evenodd" d="M250 311.225C283.814 311.225 311.225 283.814 311.225 250C311.225 216.187 283.814 188.776 250 188.776C216.187 188.776 188.776 216.187 188.776 250C188.776 283.814 216.187 311.225 250 311.225ZM250 290.817C272.542 290.817 290.816 272.543 290.816 250C290.816 227.458 272.542 209.184 250 209.184C227.457 209.184 209.183 227.458 209.183 250C209.183 272.543 227.457 290.817 250 290.817Z" fill="#F4364C"/>
<path fill-rule="evenodd" clip-rule="evenodd" d="M250.001 346.939C303.539 346.939 346.94 303.538 346.94 250C346.94 196.462 303.539 153.061 250.001 153.061C196.463 153.061 153.062 196.462 153.062 250C153.062 303.538 196.463 346.939 250.001 346.939ZM250 327.054C292.556 327.054 327.054 292.556 327.054 250C327.054 207.445 292.556 172.946 250 172.946C207.445 172.946 172.946 207.445 172.946 250C172.946 292.556 207.445 327.054 250 327.054Z" fill="#F4364C"/>
<path fill-rule="evenodd" clip-rule="evenodd" d="M250 377.552C320.445 377.552 377.552 320.445 377.552 250C377.552 179.556 320.445 122.449 250 122.449C179.556 122.449 122.449 179.556 122.449 250C122.449 320.445 179.556 377.552 250 377.552ZM250.002 362.545C312.159 362.545 362.547 312.157 362.547 250C362.547 187.843 312.159 137.455 250.002 137.455C187.845 137.455 137.457 187.843 137.457 250C137.457 312.157 187.845 362.545 250.002 362.545Z" fill="#F4364C"/>
<path fill-rule="evenodd" clip-rule="evenodd" d="M392.857 250C392.857 328.898 328.898 392.858 250 392.858C171.102 392.858 107.143 328.898 107.143 250C107.143 171.102 171.102 107.143 250 107.143C328.898 107.143 392.857 171.102 392.857 250ZM250 387.756C326.08 387.756 387.755 326.08 387.755 250C387.755 173.92 326.08 112.245 250 112.245C173.92 112.245 112.245 173.92 112.245 250C112.245 326.08 173.92 387.756 250 387.756Z" fill="#F4364C"/>
<path fill-rule="evenodd" clip-rule="evenodd" d="M250 500C388.071 500 500 388.071 500 250C500 111.929 388.071 0 250 0C111.929 0 0 111.929 0 250C0 388.071 111.929 500 250 500ZM250 497.449C386.662 497.449 497.449 386.662 497.449 250C497.449 113.338 386.662 2.55102 250 2.55102C113.338 2.55102 2.55102 113.338 2.55102 250C2.55102 386.662 113.338 497.449 250 497.449ZM205.216 11.836C92.7952 32.8437 7.70516 131.485 7.70516 250C7.70516 367.088 90.7591 464.778 201.168 487.371C90.7594 464.778 7.70587 367.088 7.70587 250C7.70587 131.485 92.7961 32.844 205.216 11.836Z" fill="#F4364C"/>
<path fill-rule="evenodd" clip-rule="evenodd" d="M250.001 489.796C382.436 489.796 489.797 382.436 489.797 250C489.797 117.565 382.436 10.2041 250.001 10.2041C117.565 10.2041 10.2043 117.565 10.2043 250C10.2043 382.436 117.565 489.796 250.001 489.796ZM250 484.694C379.618 484.694 484.694 379.618 484.694 250C484.694 120.382 379.618 15.3061 250 15.3061C120.382 15.3061 15.3059 120.382 15.3059 250C15.3059 379.618 120.382 484.694 250 484.694Z" fill="#F4364C"/>
<path d="M74.709 237.516L75.9702 222.354L35.457 218.984L35.7184 215.842L76.2316 219.212L77.5004 203.958L80.1545 204.179L77.3631 237.737L74.709 237.516Z" fill="#F4364C"/>
<path d="M57.5842 287.849L77.0365 274.492C77.6674 274.038 78.4398 273.563 79.354 273.067C78.8493 273.054 78.3623 273.027 77.893 272.985C77.4436 272.938 77.022 272.875 76.6279 272.796L53.3782 268.934L57.5842 287.849ZM44.3044 300.618L43.7794 298.257C43.7174 297.978 43.7362 297.733 43.8358 297.523C43.9553 297.308 44.1235 297.125 44.3404 296.972L55.5191 289.281L50.9012 268.512L37.5165 266.283C37.2796 266.252 37.0594 266.154 36.8557 265.991C36.652 265.827 36.5192 265.605 36.4572 265.326L35.9389 262.996L82.0698 270.896L82.7409 273.914L44.3044 300.618Z" fill="#F4364C"/>
<path d="M82.2832 330.613C83.2574 332.266 84.3213 333.629 85.475 334.702C86.6566 335.782 87.8809 336.553 89.1479 337.014C90.4252 337.493 91.7224 337.664 93.0395 337.527C94.3566 337.391 95.6656 336.939 96.9666 336.172C99.6213 334.607 101.077 332.576 101.335 330.079C101.603 327.599 100.757 324.698 98.7983 321.375L94.772 314.545L78.4745 324.152L82.2832 330.613ZM73.1639 358.305L71.7959 355.984C71.6197 355.686 71.5134 355.405 71.4769 355.142C71.4684 354.886 71.5442 354.593 71.7043 354.262L79.7837 333.366C79.8942 333.111 79.9731 332.863 80.0205 332.622C80.0783 332.399 80.0853 332.17 80.0416 331.935C80.0259 331.707 79.9579 331.451 79.8376 331.167C79.7276 330.9 79.5639 330.582 79.3462 330.213L76.4703 325.334L59.5926 335.283L57.9914 332.567L95.3069 310.57L100.934 320.116C103.463 324.406 104.519 328.107 104.103 331.219C103.715 334.338 101.912 336.845 98.6949 338.742C97.2709 339.581 95.8248 340.102 94.3567 340.304C92.8886 340.506 91.4316 340.406 89.9857 340.003C88.5677 339.607 87.1888 338.915 85.8489 337.928C84.5194 336.959 83.2761 335.714 82.1189 334.193C82.1039 334.77 81.9751 335.355 81.7325 335.948L73.1639 358.305Z" fill="#F4364C"/>
<path d="M131.52 395.061L121.457 406.716C118.819 406.461 116.307 405.842 113.92 404.86C111.533 403.877 109.181 402.386 106.863 400.385C104.268 398.144 102.276 395.737 100.886 393.162C99.5097 390.571 98.7145 387.917 98.5007 385.197C98.3157 382.476 98.7228 379.741 99.7222 376.991C100.737 374.254 102.338 371.619 104.525 369.085C106.713 366.552 109.072 364.585 111.602 363.184C114.162 361.781 116.779 360.967 119.454 360.742C122.157 360.514 124.861 360.881 127.565 361.84C130.282 362.784 132.907 364.349 135.441 366.537C136.692 367.617 137.769 368.695 138.673 369.772C139.592 370.862 140.361 371.971 140.979 373.098C141.61 374.209 142.106 375.352 142.467 376.526C142.842 377.685 143.118 378.895 143.298 380.155L141.769 380.614C141.232 380.799 140.834 380.603 140.575 380.029C140.424 379.736 140.278 379.233 140.139 378.52C140 377.807 139.712 376.938 139.275 375.914C138.838 374.89 138.183 373.744 137.309 372.477C136.45 371.223 135.217 369.903 133.611 368.516C131.479 366.675 129.255 365.348 126.938 364.534C124.636 363.733 122.328 363.439 120.014 363.652C117.716 363.879 115.448 364.616 113.21 365.866C110.987 367.128 108.896 368.895 106.935 371.166C104.948 373.468 103.485 375.818 102.547 378.216C101.624 380.628 101.227 383.008 101.356 385.357C101.5 387.72 102.167 390.007 103.356 392.221C104.546 394.434 106.253 396.501 108.478 398.422C109.451 399.262 110.4 399.974 111.325 400.557C112.266 401.154 113.201 401.664 114.129 402.088C115.086 402.51 116.052 402.858 117.027 403.134C118.031 403.408 119.076 403.65 120.162 403.859L127.784 395.031L121.505 389.61C121.335 389.463 121.235 389.282 121.205 389.067C121.19 388.866 121.243 388.696 121.363 388.557L122.483 387.259L131.52 395.061Z" fill="#F4364C"/>
<path d="M171.491 441.669L170.425 444.043L146.498 433.974L163.301 394.049L187.227 404.119L186.218 406.517L165.198 397.67L158.405 413.81L175.899 421.172L174.913 423.514L157.42 416.151L150.414 432.798L171.491 441.669Z" fill="#F4364C"/>
<path d="M238.278 420.314L223.153 418.665L218.745 459.078L215.61 458.736L220.018 418.323L204.803 416.663L205.091 414.016L238.566 417.667L238.278 420.314Z" fill="#F4364C"/>
<path d="M328.311 399.111C328.277 399.502 328.099 399.765 327.78 399.9C327.535 400.003 327.144 399.968 326.607 399.796C326.08 399.597 325.4 399.429 324.568 399.292C323.727 399.136 322.734 399.09 321.586 399.152C320.458 399.206 319.169 399.538 317.721 400.148C316.272 400.757 315.08 401.502 314.145 402.383C313.228 403.256 312.544 404.208 312.092 405.24C311.659 406.263 311.443 407.329 311.444 408.435C311.464 409.534 311.691 410.601 312.127 411.635C312.697 412.99 313.45 413.99 314.386 414.637C315.341 415.276 316.42 415.707 317.622 415.932C318.823 416.157 320.108 416.237 321.475 416.17C322.853 416.078 324.259 415.973 325.694 415.856C327.128 415.74 328.545 415.686 329.944 415.695C331.353 415.678 332.687 415.847 333.944 416.204C335.201 416.56 336.345 417.175 337.377 418.047C338.419 418.893 339.284 420.134 339.973 421.77C340.678 423.444 341.051 425.147 341.093 426.878C341.147 428.583 340.857 430.211 340.225 431.761C339.594 433.311 338.622 434.738 337.311 436.043C335.992 437.328 334.317 438.399 332.286 439.254C329.652 440.362 327.192 440.855 324.904 440.733C322.608 440.592 320.405 440.014 318.295 438.997L318.563 437.424C318.67 437.046 318.873 436.794 319.174 436.668C319.344 436.597 319.608 436.618 319.966 436.733C320.324 436.848 320.763 436.996 321.281 437.176C321.792 437.337 322.394 437.505 323.087 437.678C323.772 437.833 324.534 437.933 325.372 437.979C326.203 438.005 327.117 437.942 328.115 437.787C329.113 437.633 330.185 437.315 331.333 436.832C332.913 436.167 334.225 435.338 335.268 434.345C336.304 433.334 337.071 432.236 337.569 431.052C338.086 429.86 338.333 428.605 338.309 427.286C338.278 425.949 337.989 424.631 337.443 423.333C336.849 421.923 336.07 420.888 335.107 420.231C334.155 419.547 333.082 419.102 331.888 418.895C330.686 418.671 329.397 418.605 328.019 418.697C326.659 418.782 325.267 418.892 323.84 419.028C322.413 419.163 320.995 419.24 319.586 419.257C318.195 419.267 316.871 419.093 315.614 418.737C314.349 418.361 313.187 417.732 312.129 416.849C311.082 415.939 310.198 414.628 309.477 412.916C308.915 411.581 308.627 410.186 308.612 408.73C308.598 407.275 308.882 405.871 309.464 404.519C310.038 403.148 310.922 401.88 312.114 400.714C313.317 399.521 314.84 398.537 316.683 397.761C318.752 396.89 320.744 396.44 322.657 396.409C324.59 396.371 326.518 396.744 328.442 397.528L328.311 399.111Z" fill="#F4364C"/>
<path d="M374.431 363.599L362.678 373.26L388.495 404.664L386.059 406.666L360.242 375.263L348.419 384.983L346.728 382.926L372.739 361.541L374.431 363.599Z" fill="#F4364C"/>
<path d="M425.208 324.806C428.05 326.574 430.367 328.606 432.16 330.9C433.936 333.183 435.167 335.608 435.853 338.175C436.522 340.731 436.632 343.372 436.185 346.098C435.731 348.797 434.696 351.445 433.078 354.044C431.46 356.643 429.541 358.742 427.32 360.34C425.082 361.928 422.668 362.985 420.08 363.514C417.474 364.031 414.755 363.997 411.922 363.412C409.072 362.815 406.226 361.633 403.385 359.864C400.561 358.106 398.261 356.085 396.485 353.802C394.692 351.508 393.461 349.083 392.792 346.527C392.106 343.961 391.981 341.323 392.417 338.613C392.854 335.904 393.881 333.25 395.499 330.651C397.117 328.053 399.045 325.959 401.283 324.372C403.515 322.756 405.933 321.69 408.539 321.172C411.145 320.655 413.873 320.694 416.723 321.291C419.556 321.876 422.384 323.048 425.208 324.806ZM423.493 327.56C420.929 325.964 418.404 324.885 415.917 324.323C413.431 323.76 411.073 323.687 408.843 324.102C406.613 324.517 404.56 325.402 402.682 326.758C400.788 328.102 399.155 329.875 397.786 332.075C396.427 334.258 395.562 336.496 395.192 338.79C394.805 341.073 394.912 343.315 395.513 345.516C396.124 347.7 397.226 349.792 398.817 351.792C400.42 353.775 402.503 355.565 405.067 357.161C407.649 358.768 410.183 359.853 412.669 360.415C415.149 360.949 417.504 361.009 419.734 360.594C421.974 360.161 424.033 359.268 425.91 357.912C427.788 356.557 429.406 354.787 430.765 352.604C432.135 350.404 433.013 348.162 433.401 345.88C433.788 343.597 433.676 341.363 433.064 339.179C432.452 336.996 431.354 334.918 429.769 332.945C428.167 330.962 426.075 329.167 423.493 327.56Z" fill="#F4364C"/>
<path d="M438.286 284.258C438.702 282.386 438.855 280.663 438.745 279.092C438.619 277.496 438.251 276.097 437.64 274.895C437.033 273.673 436.202 272.662 435.147 271.863C434.091 271.064 432.826 270.5 431.352 270.172C428.343 269.503 425.893 269.993 424 271.642C422.112 273.271 420.749 275.968 419.912 279.734L418.191 287.473L436.658 291.579L438.286 284.258ZM463.855 270.25L463.27 272.879C463.195 273.218 463.081 273.496 462.928 273.713C462.76 273.905 462.504 274.068 462.161 274.201L441.992 283.953C441.737 284.064 441.51 284.191 441.311 284.335C441.116 284.459 440.955 284.622 440.826 284.823C440.682 285 440.557 285.234 440.451 285.524C440.349 285.794 440.252 286.138 440.159 286.556L438.929 292.084L458.054 296.337L457.37 299.415L415.086 290.013L417.491 279.195C418.572 274.334 420.327 270.909 422.755 268.919C425.168 266.905 428.198 266.304 431.843 267.114C433.457 267.473 434.869 268.08 436.08 268.934C437.291 269.789 438.287 270.857 439.068 272.139C439.834 273.396 440.369 274.843 440.674 276.479C440.984 278.095 441.043 279.854 440.85 281.755C441.255 281.343 441.749 281.004 442.331 280.736L463.855 270.25Z" fill="#F4364C"/>
<path d="M455.674 206.963L458.272 206.808L460.424 232.678L417.256 236.269L415.105 210.399L417.698 210.183L419.588 232.911L437.038 231.459L435.465 212.545L437.997 212.334L439.57 231.249L457.569 229.751L455.674 206.963Z" fill="#F4364C"/>
</svg>
